<svg id="base" xmlns="http://www.w3.org/2000/svg" viewBox="0 0 976.4 600"><defs><style>.cls-1{fill:#f9bc50;}.cls-2{fill:#f9d76c;}.cls-3{fill:#e89f5e;}.cls-4{fill:#e57920;}.cls-5{fill:#efa02e;}.cls-6{fill:#f4c42a;}</style></defs><title>vyw</title><polygon class="cls-1" points="432.86 374.76 356.45 374.76 262.94 75.71 339.35 75.71 432.86 374.76"/><polygon class="cls-2" points="245.75 374.76 169.34 374.76 75.83 75.71 152.24 75.71 245.75 374.76"/><polygon class="cls-3" points="620.05 374.76 543.65 374.76 450.13 75.71 526.54 75.71 620.05 374.76"/><polygon class="cls-3" points="807 374.76 730.59 374.76 637.08 75.71 713.48 75.71 807 374.76"/><polygon class="cls-4" points="730.66 374.76 807.06 374.76 900.57 75.71 824.17 75.71 730.66 374.76"/><polygon class="cls-4" points="543.63 374.76 620.03 374.76 713.54 75.71 637.14 75.71 543.63 374.76"/><polygon class="cls-5" points="526.46 75.71 450.06 75.71 309.79 524.29 386.2 524.29 432.95 374.76 526.46 75.71"/><polygon class="cls-6" points="169.39 374.76 245.79 374.76 339.31 75.71 262.9 75.71 169.39 374.76"/></svg>