<svg id="Layer_1" data-name="Layer 1" xmlns="http://www.w3.org/2000/svg" viewBox="0 0 900 600"><defs><style>.cls-1{fill:#4c4c4c;}.cls-2{fill:#333132;}</style></defs><title>vrHMD</title><path class="cls-1" d="M91,98V504H813V98ZM276.5,408.5A108.5,108.5,0,1,1,385,300,108.5,108.5,0,0,1,276.5,408.5Zm347,0A108.5,108.5,0,1,1,732,300,108.5,108.5,0,0,1,623.5,408.5Z"/><path class="cls-2" d="M722.12,56.93H177.88c-80.61,0-145.95,66.85-145.95,149.31V393.76c0,82.46,65.34,149.31,145.95,149.31H722.12c80.61,0,146-66.85,146-149.31V206.24C868.07,123.78,802.73,56.93,722.12,56.93Zm85,329.27c0,57.5-45.57,104.12-101.77,104.12H532.48c-31.59,0-30.77-123.93-82.48-123.93s-45.6,123.93-78,123.93H194.69c-56.21,0-101.77-46.61-101.77-104.12V213.8c0-57.5,45.57-104.12,101.77-104.12H705.31c56.21,0,101.77,46.61,101.77,104.12Z"/></svg>